<?xml version="1.0" standalone="no"?><!DOCTYPE svg PUBLIC "-//W3C//DTD SVG 1.1//EN" "http://www.w3.org/Graphics/SVG/1.1/DTD/svg11.dtd"><svg t="1514874068456" class="icon" style="" viewBox="0 0 1024 1024" version="1.1" xmlns="http://www.w3.org/2000/svg" p-id="966" xmlns:xlink="http://www.w3.org/1999/xlink" width="200" height="200"><defs><style type="text/css"></style></defs><path d="M855.008 184l-316-102.016q-27.008-8.992-54.016 0l-316 102.016q-20 7.008-32 24t-12 38.016l0 224q0 96.992 44 184.512t122.016 145.504l183.008 134.016q16.992 12 38.016 12 7.008 0 13.504-1.504t12.992-4 11.488-6.496l183.008-134.016q51.008-38.016 88.992-90.496t57.504-114.016 19.488-125.504l0-224q0-20.992-12-38.016t-32-24zM856 470.016q0 87.008-39.488 165.504t-109.504 129.504l-182.016 134.016q-12.992 8.992-26.016 0l-182.016-134.016q-70.016-52-109.504-130.016t-39.488-164.992l0-224q0-16 15.008-20.992l316-102.016q6.016-2.016 12.992-2.016t12.992 2.016l316 102.016q4.992 0.992 8.512 4.512t4.992 7.488 1.504 8.992l0 224zM706.016 322.016l-388 0q-8.992 0-15.008 6.016t-6.016 15.008q0 6.016 3.008 11.008t7.488 8 10.496 3.008l172 0 0 320.992q0 8.992 6.496 15.008t15.488 6.016 15.488-6.016 6.496-15.008l0-320.992 172 0q6.016 0 10.496-3.008t7.488-8 3.008-11.008-3.008-10.496-7.488-7.488-10.496-3.008z" p-id="967"></path></svg>